<svg width="62" height="65" viewBox="0 0 62 65" fill="none" xmlns="http://www.w3.org/2000/svg">
<g filter="url(#filter0_d)">
<path d="M27.4492 33.2051C26.0365 33.2051 24.832 32.9121 23.8359 32.3262C22.8398 31.7402 22.0749 30.9264 21.541 29.8848C21.0137 28.8431 20.75 27.6354 20.75 26.2617V25.7734C20.75 24.3542 21.0137 23.1042 21.541 22.0234C22.0684 20.9427 22.8138 20.0996 23.7773 19.4941C24.7474 18.8822 25.8932 18.5762 27.2148 18.5762C28.2305 18.5762 29.1875 18.7161 30.0859 18.9961C30.9909 19.276 31.7754 19.696 32.4395 20.2559V23.4102H30.3301L29.9297 21.5059C29.6693 21.2845 29.3242 21.1087 28.8945 20.9785C28.4714 20.8418 27.9831 20.7734 27.4297 20.7734C26.6289 20.7734 25.9421 20.9818 25.3691 21.3984C24.7962 21.8151 24.3568 22.3978 24.0508 23.1465C23.7448 23.8952 23.5918 24.7643 23.5918 25.7539V26.2617C23.5918 27.707 23.9303 28.8626 24.6074 29.7285C25.2845 30.5879 26.2611 31.0176 27.5371 31.0176C28.0384 31.0176 28.4974 30.9688 28.9141 30.8711C29.3372 30.7734 29.6855 30.6595 29.959 30.5293V28.1172L27.9277 27.9609V25.959H32.8203V31.7109C32.1888 32.1602 31.4271 32.5215 30.5352 32.7949C29.6432 33.0684 28.6146 33.2051 27.4492 33.2051Z" fill="#536DFE"/>
</g>
<g filter="url(#filter1_d)">
<path d="M36.2539 42.2051C35.2057 42.2051 34.252 42.0879 33.3926 41.8535C32.5332 41.6191 31.6868 41.2122 30.8535 40.6328V37.1953H33.0605L33.3633 39.2168C33.6497 39.4642 34.0501 39.666 34.5645 39.8223C35.0853 39.972 35.6484 40.0469 36.2539 40.0469C37.0286 40.0469 37.6211 39.8906 38.0312 39.5781C38.4414 39.2591 38.6465 38.8294 38.6465 38.2891C38.6465 37.7812 38.4512 37.3548 38.0605 37.0098C37.6764 36.6582 36.9993 36.3327 36.0293 36.0332C34.3431 35.5449 33.0866 34.9655 32.2598 34.2949C31.4329 33.6243 31.0195 32.7064 31.0195 31.541C31.0195 30.7728 31.2311 30.0957 31.6543 29.5098C32.084 28.9173 32.6764 28.4518 33.4316 28.1133C34.1868 27.7747 35.0592 27.599 36.0488 27.5859C37.1426 27.5729 38.1094 27.7031 38.9492 27.9766C39.7956 28.25 40.5247 28.6309 41.1367 29.1191V32.3223H38.998L38.627 30.3691C38.3796 30.2129 38.0443 30.0762 37.6211 29.959C37.2044 29.8418 36.7292 29.7832 36.1953 29.7832C35.5117 29.7832 34.9518 29.9362 34.5156 30.2422C34.0794 30.5482 33.8613 30.9779 33.8613 31.5312C33.8613 32.0065 34.0632 32.4036 34.4668 32.7227C34.877 33.0352 35.6289 33.3672 36.7227 33.7188C38.2917 34.1549 39.4798 34.7311 40.2871 35.4473C41.1009 36.1634 41.5078 37.1042 41.5078 38.2695C41.5078 39.0833 41.2897 39.7832 40.8535 40.3691C40.4173 40.9551 39.8021 41.4076 39.0078 41.7266C38.2201 42.0456 37.3021 42.2051 36.2539 42.2051Z" fill="#536DFE"/>
</g>
<defs>
<filter id="filter0_d" x="0.75" y="0.576172" width="52.0703" height="54.6289" filterUnits="userSpaceOnUse" color-interpolation-filters="sRGB">
<feFlood flood-opacity="0" result="BackgroundImageFix"/>
<feColorMatrix in="SourceAlpha" type="matrix" values="0 0 0 0 0 0 0 0 0 0 0 0 0 0 0 0 0 0 127 0" result="hardAlpha"/>
<feOffset dy="2"/>
<feGaussianBlur stdDeviation="10"/>
<feColorMatrix type="matrix" values="0 0 0 0 0.0117647 0 0 0 0 0.45098 0 0 0 0 0.592157 0 0 0 0.1 0"/>
<feBlend mode="normal" in2="BackgroundImageFix" result="effect1_dropShadow"/>
<feBlend mode="normal" in="SourceGraphic" in2="effect1_dropShadow" result="shape"/>
</filter>
<filter id="filter1_d" x="10.8535" y="9.58505" width="50.6543" height="54.62" filterUnits="userSpaceOnUse" color-interpolation-filters="sRGB">
<feFlood flood-opacity="0" result="BackgroundImageFix"/>
<feColorMatrix in="SourceAlpha" type="matrix" values="0 0 0 0 0 0 0 0 0 0 0 0 0 0 0 0 0 0 127 0" result="hardAlpha"/>
<feOffset dy="2"/>
<feGaussianBlur stdDeviation="10"/>
<feColorMatrix type="matrix" values="0 0 0 0 0.0117647 0 0 0 0 0.45098 0 0 0 0 0.592157 0 0 0 0.1 0"/>
<feBlend mode="normal" in2="BackgroundImageFix" result="effect1_dropShadow"/>
<feBlend mode="normal" in="SourceGraphic" in2="effect1_dropShadow" result="shape"/>
</filter>
</defs>
</svg>
